<mxfile host="Electron" agent="Mozilla/5.0 (Windows NT 10.0; Win64; x64) AppleWebKit/537.36 (KHTML, like Gecko) draw.io/24.7.17 Chrome/128.0.6613.36 Electron/32.0.1 Safari/537.36" version="24.7.17">
  <diagram name="Side-1" id="MIh432SVvvTU2UH0zctk">
    <mxGraphModel dx="941" dy="644" grid="1" gridSize="10" guides="1" tooltips="1" connect="1" arrows="1" fold="1" page="1" pageScale="1" pageWidth="827" pageHeight="1169" math="0" shadow="0">
      <root>
        <mxCell id="0" />
        <mxCell id="1" parent="0" />
        <mxCell id="qWMFO-Yb1zcle8_sYHGA-6" style="edgeStyle=orthogonalEdgeStyle;rounded=0;orthogonalLoop=1;jettySize=auto;html=1;entryX=0.5;entryY=0;entryDx=0;entryDy=0;" edge="1" parent="1" source="qWMFO-Yb1zcle8_sYHGA-1" target="qWMFO-Yb1zcle8_sYHGA-5">
          <mxGeometry relative="1" as="geometry" />
        </mxCell>
        <mxCell id="qWMFO-Yb1zcle8_sYHGA-7" value="Ja" style="edgeLabel;html=1;align=center;verticalAlign=middle;resizable=0;points=[];" vertex="1" connectable="0" parent="qWMFO-Yb1zcle8_sYHGA-6">
          <mxGeometry x="-0.3143" y="2" relative="1" as="geometry">
            <mxPoint x="25" y="-12" as="offset" />
          </mxGeometry>
        </mxCell>
        <mxCell id="qWMFO-Yb1zcle8_sYHGA-9" style="edgeStyle=orthogonalEdgeStyle;rounded=0;orthogonalLoop=1;jettySize=auto;html=1;entryX=0.5;entryY=0;entryDx=0;entryDy=0;" edge="1" parent="1" source="qWMFO-Yb1zcle8_sYHGA-1" target="qWMFO-Yb1zcle8_sYHGA-8">
          <mxGeometry relative="1" as="geometry" />
        </mxCell>
        <mxCell id="qWMFO-Yb1zcle8_sYHGA-10" value="Nej" style="edgeLabel;html=1;align=center;verticalAlign=middle;resizable=0;points=[];" vertex="1" connectable="0" parent="qWMFO-Yb1zcle8_sYHGA-9">
          <mxGeometry x="-0.6" y="2" relative="1" as="geometry">
            <mxPoint x="-10" y="-18" as="offset" />
          </mxGeometry>
        </mxCell>
        <mxCell id="qWMFO-Yb1zcle8_sYHGA-1" value="Grøn strøm. &lt;br&gt;Over 50g CO2/kwh" style="rhombus;whiteSpace=wrap;html=1;" vertex="1" parent="1">
          <mxGeometry x="355" y="200" width="170" height="160" as="geometry" />
        </mxCell>
        <mxCell id="qWMFO-Yb1zcle8_sYHGA-4" value="" style="edgeStyle=orthogonalEdgeStyle;rounded=0;orthogonalLoop=1;jettySize=auto;html=1;" edge="1" parent="1" source="qWMFO-Yb1zcle8_sYHGA-3" target="qWMFO-Yb1zcle8_sYHGA-1">
          <mxGeometry relative="1" as="geometry" />
        </mxCell>
        <mxCell id="qWMFO-Yb1zcle8_sYHGA-3" value="ID 8 Start" style="ellipse;whiteSpace=wrap;html=1;aspect=fixed;" vertex="1" parent="1">
          <mxGeometry x="400" y="40" width="80" height="80" as="geometry" />
        </mxCell>
        <mxCell id="qWMFO-Yb1zcle8_sYHGA-13" style="edgeStyle=orthogonalEdgeStyle;rounded=0;orthogonalLoop=1;jettySize=auto;html=1;entryX=0;entryY=0.5;entryDx=0;entryDy=0;" edge="1" parent="1" source="qWMFO-Yb1zcle8_sYHGA-5" target="qWMFO-Yb1zcle8_sYHGA-11">
          <mxGeometry relative="1" as="geometry" />
        </mxCell>
        <mxCell id="qWMFO-Yb1zcle8_sYHGA-5" value="Tænder for relæ" style="shape=parallelogram;perimeter=parallelogramPerimeter;whiteSpace=wrap;html=1;fixedSize=1;" vertex="1" parent="1">
          <mxGeometry x="200" y="360" width="120" height="60" as="geometry" />
        </mxCell>
        <mxCell id="qWMFO-Yb1zcle8_sYHGA-12" style="edgeStyle=orthogonalEdgeStyle;rounded=0;orthogonalLoop=1;jettySize=auto;html=1;entryX=1;entryY=0.5;entryDx=0;entryDy=0;" edge="1" parent="1" source="qWMFO-Yb1zcle8_sYHGA-8" target="qWMFO-Yb1zcle8_sYHGA-11">
          <mxGeometry relative="1" as="geometry" />
        </mxCell>
        <mxCell id="qWMFO-Yb1zcle8_sYHGA-8" value="Lukker for relæ" style="shape=parallelogram;perimeter=parallelogramPerimeter;whiteSpace=wrap;html=1;fixedSize=1;" vertex="1" parent="1">
          <mxGeometry x="560" y="360" width="120" height="60" as="geometry" />
        </mxCell>
        <mxCell id="qWMFO-Yb1zcle8_sYHGA-14" style="edgeStyle=orthogonalEdgeStyle;rounded=0;orthogonalLoop=1;jettySize=auto;html=1;entryX=0.5;entryY=0;entryDx=0;entryDy=0;" edge="1" parent="1" source="qWMFO-Yb1zcle8_sYHGA-11" target="qWMFO-Yb1zcle8_sYHGA-1">
          <mxGeometry relative="1" as="geometry">
            <Array as="points">
              <mxPoint x="440" y="550" />
              <mxPoint x="720" y="550" />
              <mxPoint x="720" y="160" />
              <mxPoint x="440" y="160" />
            </Array>
          </mxGeometry>
        </mxCell>
        <mxCell id="qWMFO-Yb1zcle8_sYHGA-11" value="Vent en sjat tid" style="rounded=0;whiteSpace=wrap;html=1;" vertex="1" parent="1">
          <mxGeometry x="380" y="440" width="120" height="60" as="geometry" />
        </mxCell>
      </root>
    </mxGraphModel>
  </diagram>
</mxfile>
